<svg fill="#FFFFFF" xmlns="http://www.w3.org/2000/svg"  viewBox="0 0 24 24" width="100px" height="100px"><path d="M 7 4 C 4.2504839 4 2 6.2504839 2 9 L 2 18 C 2 19.093063 2.9069372 20 4 20 L 10 20 L 20 20 C 21.105 20 22 19.105 22 18 L 22 9 C 22 6.239 19.761 4 17 4 L 7 4 z M 7 6 C 8.657 6 10 7.343 10 9 L 10 18 L 4 18 L 4 9 C 4 7.3315161 5.3315161 6 7 6 z M 7 9 A 1 1 0 0 0 6 10 A 1 1 0 0 0 7 11 A 1 1 0 0 0 8 10 A 1 1 0 0 0 7 9 z M 14 9 L 18 9 C 18.552 9 19 9.448 19 10 L 19 12 C 19 12.552 18.552 13 18 13 C 17.448 13 17 12.552 17 12 L 17 11 L 14 11 C 13.448 11 13 10.552 13 10 C 13 9.448 13.448 9 14 9 z"/></svg>